
<svg xmlns="http://www.w3.org/2000/svg" viewBox="0 0 489.778 489.778">
  <path d="M489.778 267.858c0 62.465-50.82 113.298-113.298 113.298H275.584l10.91-24.21h89.986c49.118 0 89.087-39.97 89.087-89.088 0-49.124-39.97-89.09-89.087-89.09-5.515 0-11.22.556-16.952 1.652l-14.522 2.784.136-14.786c.012-.564.04-1.114.083-1.67.012-72.18-58.646-130.834-130.75-130.834-72.093 0-130.743 58.65-130.743 130.75 0 2.02.145 4 .278 5.984l.662 10.465-7.67 3.428C44.926 200.873 24.2 232.793 24.2 267.847c0 49.13 39.965 89.094 89.083 89.094h18.436l-10.253 24.21h-8.17C50.823 381.15 0 330.323 0 267.846c0-41.753 23.11-80.01 59.545-99.67-.012-.508-.018-1.01-.018-1.52 0-85.445 69.51-154.958 154.954-154.958 81.46 0 148.446 63.177 154.517 143.114 2.52-.168 5.013-.26 7.483-.26 62.477.006 113.298 50.83 113.298 113.306zm-213.686 53.61l-86.826-.153 74.153-105.52h-70.54L135 348.444h86.822l-63.31 129.636 117.58-156.61z"/>
</svg>