<svg xmlns="http://www.w3.org/2000/svg" viewBox="0 0 290 290">
  <path d="M234.998 32.726c-2.76-.034-5.028 2.177-5.062 4.938-.02 1.524.658 2.973 1.84 3.937C262.345 67.255 280 105.11 280 145.018c0 39.908-17.653 77.764-48.225 103.416-2.12 1.768-2.407 4.922-.64 7.043 1.77 2.12 4.923 2.407 7.044.64l.025-.023C271.035 228.545 290 187.875 290 145.017c0-42.858-18.964-83.528-51.795-111.076-.892-.77-2.028-1.2-3.207-1.214zm-180.146.004c-1.126.048-2.203.474-3.057 1.21C18.965 61.49 0 102.16 0 145.018c0 42.858 18.964 83.528 51.795 111.076 2.11 1.783 5.264 1.518 7.047-.592 1.783-2.108 1.518-5.263-.59-7.046l-.027-.022C27.653 222.782 10 184.925 10 145.017 10 105.11 27.653 67.253 58.225 41.6c2.14-1.744 2.46-4.894.715-7.035-.998-1.222-2.513-1.902-4.088-1.835zm134.076 38.297c-2.76-.034-5.028 2.176-5.062 4.938-.02 1.525.66 2.976 1.842 3.94 19.25 16.15 30.363 39.984 30.363 65.112s-11.113 48.96-30.362 65.113c-2.144 1.74-2.47 4.89-.73 7.034 1.74 2.144 4.89 2.47 7.034.73l.124-.104c21.51-18.048 33.936-44.695 33.936-72.773s-12.426-54.725-33.936-72.773c-.893-.77-2.03-1.202-3.208-1.217zm-88.006.004c-1.126.05-2.204.477-3.057 1.214-21.51 18.048-33.935 44.695-33.935 72.773 0 28.078 12.426 54.725 33.936 72.773 2.087 1.81 5.245 1.584 7.054-.502 1.81-2.087 1.584-5.245-.502-7.054-.04-.035-.082-.07-.124-.104-19.25-16.152-30.363-39.985-30.363-65.113 0-25.13 11.115-48.96 30.364-65.113 2.14-1.744 2.463-4.894.72-7.035-1-1.225-2.515-1.907-4.092-1.84zM145 110.018c-19.27 0-35 15.73-35 35s15.73 35 35 35 35-15.73 35-35-15.73-35-35-35zm0 10c13.866 0 25 11.134 25 25s-11.134 25-25 25-25-11.134-25-25 11.134-25 25-25zm0 7.5c-1.38-.02-2.516 1.084-2.535 2.465-.02 1.38 1.084 2.516 2.465 2.535h.07c6.934 0 12.5 5.567 12.5 12.5-.02 1.38 1.085 2.516 2.466 2.535 1.38.02 2.516-1.084 2.535-2.465v-.07c0-9.635-7.865-17.5-17.5-17.5z"/>
</svg>