<svg xmlns="http://www.w3.org/2000/svg" viewBox="0 0 64.436 64.436">
  <path d="M63.27 31.05H42.693l10.2-10.203c.457-.455.457-1.195 0-1.65-.45-.456-1.195-.456-1.65 0L39.046 31.39h-.002l-.823.826.823.825h.002L51.242 45.24c.233.23.532.34.828.34.297 0 .598-.114.828-.34.452-.456.452-1.197 0-1.65L42.693 33.385h20.575c.643 0 1.168-.524 1.168-1.168s-.525-1.168-1.166-1.168zM25.39 33.043l.828-.825-.827-.826-12.2-12.197c-.453-.455-1.196-.455-1.65 0-.454.456-.454 1.196 0 1.65l10.2 10.205H1.168C.523 31.05 0 31.574 0 32.218s.523 1.168 1.168 1.168h20.574L11.54 43.59c-.454.453-.454 1.194 0 1.65.23.23.53.34.826.34s.598-.114.827-.34L25.39 33.043c-.002 0-.002 0 0 0zM33.043 39.05l-.825-.826-.827.823v.003l-12.2 12.192c-.454.456-.454 1.197 0 1.65.457.457 1.197.457 1.652 0l10.203-10.2v20.575c0 .644.523 1.168 1.168 1.168.644 0 1.168-.524 1.168-1.168V42.692l10.204 10.2c.23.23.53.343.828.343.3 0 .598-.114.825-.342.452-.454.452-1.195 0-1.65L33.043 39.05zM31.393 25.386l.827.827.828-.825 12.2-12.196c.455-.455.455-1.196 0-1.65s-1.196-.456-1.652 0L33.39 21.74V1.168C33.39.523 32.866 0 32.222 0c-.642 0-1.167.523-1.167 1.168v20.574l-10.206-10.2c-.454-.456-1.196-.456-1.65 0-.455.454-.455 1.195 0 1.65l12.193 12.194z"/>
</svg>