<svg xmlns="http://www.w3.org/2000/svg" viewBox="0 0 44 44">
  <path fill-rule="evenodd" d="M3 21H1c-.6 0-1 .4-1 1s.4 1 1 1h2c.6 0 1-.4 1-1s-.4-1-1-1zm40 0h-2c-.6 0-1 .4-1 1s.4 1 1 1h2c.6 0 1-.4 1-1s-.4-1-1-1zM36 14c-.6 0-1 .4-1 1v14c0 .6.4 1 1 1s1-.4 1-1V15c0-.6-.4-1-1-1zm-20 0c-.6 0-1 .4-1 1v14c0 .6.4 1 1 1s1-.4 1-1V15c0-.6-.4-1-1-1zm-8 4c-.6 0-1 .4-1 1v6c0 .6.4 1 1 1s1-.4 1-1v-6c0-.6-.4-1-1-1zm24-8c-.6 0-1 .4-1 1v22c0 .6.4 1 1 1s1-.4 1-1V11c0-.6-.4-1-1-1zm-8 0c-.6 0-1 .4-1 1v22c0 .6.4 1 1 1s1-.4 1-1V11c0-.6-.4-1-1-1zm-12 0c-.6 0-1 .4-1 1v22c0 .6.4 1 1 1s1-.4 1-1V11c0-.6-.4-1-1-1zm16-4c-.6 0-1 .4-1 1v30c0 .6.4 1 1 1s1-.4 1-1V7c0-.6-.4-1-1-1zm-8 0c-.6 0-1 .4-1 1v30c0 .6.4 1 1 1s1-.4 1-1V7c0-.6-.4-1-1-1z"/>
</svg>