<svg xmlns="http://www.w3.org/2000/svg" viewBox="0 0 32 32">
  <path d="M14.7 15.8c-.4-1-.7-2-.7-3.3s.3-2.5.7-3.7c.5-1 1-2.2 2-3.2.8-1 1.7-1.7 2.8-2.2 1-.6 2.3-1 3.5-1s2.4.4 3.5.8c1 .5 2 1 3 2 .7.7 1.3 1.7 1.8 2.8.4 1 .7 2.3.7 3.5s-.3 2.4-.7 3.5c-.5 1-1 2-2 3-.8.7-12.2 11-13.3 11.5C15 29 3.4 18.7 2.6 18c-.8-1-1.4-2-2-3-.3-1-.6-2.3-.6-3.5S.3 9 .7 8c.5-1 1-2 2-3 .8-.7 1.7-1.3 2.8-1.8 1-.4 2.3-.7 3.5-.7s2.4.3 3.5 1c1 .4 2 1.2 3 2 .7 1 1.3 2.2 1.8 3.3.4 1.2.7 2.5.7 3.7s-.3 2.4-.7 3.3c-.5 1-1 2-2 2.6"/>
</svg>