<svg xmlns="http://www.w3.org/2000/svg" viewBox="0 0 297 297">
  <path d="M148.5 101.3c25.4 0 46.8-22.3 46.8-48.7 0-25.2-20.6-45-46.8-45s-46.8 19.8-46.8 45c0 26.4 21.4 48.7 46.8 48.7zM29.8 224.5l34.3 3 25.7-55.2c1.4-3.2 5-5 8.4-4.2 3.6 1 6 4 6 7.5v27l83.2-81.8c-13.7-4-28.3-6-38.7-6-20.7 0-58 8.2-71.5 23-14.5 15.7-41 59.3-57.3 87 3.3-.5 6.7-.6 10-.2zM288.6 245.6c-5.4-4.8-12.6-7-19.7-6l-82 10.2 8.5 39.5H272c13.8 0 25-11.2 25-25 0-7.2-3-14-8.4-18.7zM25 239.3c-6 0-12 2.2-16.6 6.3C3 250.3 0 257 0 264.3c0 13.8 11.2 25 25 25h155l-8-37.5-147-12.5zM104 231l58 5h14.6l16.4-2.2v-58.3c0-3.6 2.4-6.6 6-7.4 3.3-.7 7 1 8.3 4.3l26.2 56.5 33.5-4.2c3.5-.5 7-.4 10.3 0-16.3-27.6-43-71.2-57.3-87-4-4.3-10-8-17-11.2l-99 97.3v7.2z"/>
</svg>