<svg xmlns="http://www.w3.org/2000/svg" viewBox="0 0 252.3 252.3">
  <path d="M249 80.7c-3.4-2.3-8-1.5-10.4 2L223.3 105C213.6 60.5 173.7 27 126 27c-26.4 0-51.4 10.3-70 29-3 3-3 7.7 0 10.7 2.8 3 7.5 3 10.5 0 16-16 37-24.7 59.6-24.7 41.4 0 76 30 83 69.2l-26.5-18.2c-3.4-2.3-8-1.4-10.4 2-2.3 3.4-1.4 8 2 10.4l39.8 27c1 .8 2 1.2 3 1.4h1.2c2.4 0 4.7-1 6.2-3.2L251 91c2.3-3.3 1.4-8-2-10.3zM187.2 184.4c-16 16.8-37.8 26-61 26-41.4 0-76-29.8-83-69l26.6 18c1.3 1 2.7 1.3 4.2 1.3 2.4 0 4.7-1 6.2-3.2 2.3-3.5 1.4-8-2-10.5l-39.7-27c-3.4-2.4-8-1.5-10.4 2L1.4 161c-2.3 3.6-1.4 8.2 2 10.6 1.3 1 2.7 1.3 4.2 1.3 2.4 0 4.7-1.3 6.2-3.4L29 147c9.7 45 49.6 78.5 97 78.5 27.6 0 53-11 72-30.8 3-3 2.8-7.7-.2-10.6-3-2.8-7.7-2.6-10.6.4z"/>
</svg>