<svg xmlns="http://www.w3.org/2000/svg" viewBox="0 0 512 512">
  <path d="M512 97.2c-18.8 8.4-39 14-60.3 16.6 21.7-13 38.3-33.6 46.2-58.2-20.4 12-43 20.8-66.8 25.5-19.2-20.3-46.5-33-76.7-33-58 0-105 47-105 105 0 8.2 1 16.2 2.7 24C165 172.5 87.5 130.6 35.6 67c-9 15.5-14.2 33.5-14.2 52.8 0 36.4 18.6 68.6 46.8 87.4-17.3-.5-33.5-5.2-47.6-13v1.2c0 51 36.2 93.4 84.2 103-8.8 2.4-18 3.7-27.6 3.7-6.8 0-13.4-.7-19.8-2 13.4 41.8 52.2 72.2 98 73-35.8 28.2-81 45-130.3 45-8.4 0-16.8-.5-25-1.5 46.5 30 101.7 47.2 161 47.2 193.2 0 299-160 299-298.8 0-4.6-.2-9-.4-13.6C480 136.8 498 118.3 512 97.2z"/>
</svg>