<svg xmlns="http://www.w3.org/2000/svg" viewBox="0 0 239.2 239.2">
  <path d="M148.6 209.4H0C0 179 20 146 47.8 135.7c-6-6-10.4-8-12.5-22-3 .7-7.4-2.6-8.7-7.6-1.4-5-2.2-13.3.7-14 .8-.3 1.7 0 2.6.3V78C30 56 24.6 42.8 61 39l-.4-.2s13.2-2.2 20.8-9c0 0 13.7 6.7 19 11.5 13.2 12.2 18.8 21.3 18.3 36.8v14.3c.8-.4 1.7-.6 2.6-.4 3 .7 1.4 9.3 0 14.4-1.3 5-5 8-8 7.4-2 13.3-6.7 15.4-13.2 21.8 28 10 48.2 43.4 48.2 73.8zm50-62c5.5-5.4 9.4-7.2 11.2-18.4 2.4.4 5.6-2 6.7-6.2 1-4.3 2.4-11.5 0-12.2-.7-.2-1.5 0-2.2.3V99c.3-13-4.4-20.7-15.6-31-4.4-4-15.8-9.7-15.8-9.7-6.5 5.8-17.6 7.7-17.6 7.7h.2c-30.6 3.2-26.2 14.2-26.2 33v12c-.8-.4-1.5-.6-2.2-.4-2.5.7-1.8 7.6-.6 12 1 4 4.8 7 7.2 6.4 2 11.8 5.5 13.3 10.6 18.4-5.3 2-10.2 5-14.8 8.6 13 14.6 21 34.5 21.4 53.4h78.2c0-25.6-17-53.6-40.6-62z"/>
</svg>