<svg xmlns="http://www.w3.org/2000/svg" viewBox="0 0 557 557">
  <path d="M336.6 53.2v122.4c0 10.6.8 18.3 2.5 23.3 2.8 7.6 9 11.4 18.4 11.4 10.4 0 21-6.4 32-19.3v17.2h28.3v-155h-28.3v118.4c-6.2 9-12 13.3-17.7 13.3-3.7 0-6-2.3-6.5-7-.2-.3-.3-4-.3-10.8v-114h-28.4zM272 210.4c14.3 0 25.2-5.3 33-15.8 5.7-7.7 8.6-20 8.6-36.7v-54.5c0-16.6-3-28.7-8.7-36.4-7.8-10.4-18.7-15.7-33-15.7-14 0-24.8 5.3-32.7 15.8-5.8 7.8-8.7 20-8.7 36.5V158c0 16.5 3 28.7 8.7 36.6 8 10.5 18.8 15.8 32.7 15.8zM258.6 98c0-14.4 4.4-21.5 13.4-21.5s13.3 7 13.3 21.4V163c0 14.5-4.4 21.7-13.3 21.7-9 0-13.4-7.3-13.4-21.8V98zM192.7 208.2V124L230.3 0h-31.7l-21 81.7L155.3 0h-33c6 17.4 12.6 36.8 20.3 58 9.7 28.7 16 50.7 19 66v84.2h31zM482.8 257c-9.2-8.2-19.8-13-31.8-14.6-38-4-95.6-6.2-172.5-6.2-77 0-134.3 2-172.2 6.2-12.2 1.5-23 6.4-32 14.6-9 8.3-15 18.6-18 30.8-5.4 24-8 60.3-8 108.8 0 49.3 2.6 85.6 8 108.8C59 517.6 65 527.8 74 536c9.3 8.4 20 13.2 32 14.4 38 4.4 95.6 6.6 172.5 6.6 77 0 134.4-2.2 172.5-6.6 12-1.2 22.6-6 31.7-14.3 9-8.2 15-18.4 18-30.6 5.4-24 8-60.3 8-108.8 0-49.3-2.6-85.6-8-108.8-2.7-12.2-8.6-22.5-18-30.8zm-303.2 62.2h-33.2V496h-31V319.2H82.6V290h97v29.2zm84 176.8H236v-16.7c-11.3 12.6-22 19-31.8 19-9.5 0-15.5-4-18-11.6-1.7-5-2.5-12.5-2.5-22.7V342.5h27.6v113c0 6.8 0 10.4.4 11 .6 4.4 2.8 6.5 6.5 6.5 5.6 0 11.5-4.3 17.7-13V342.5h27.6V496zm105.6-46c0 15.2-1 25.5-2.8 31-3.5 11.5-10.8 17.2-22 17.2-10 0-19.6-5.7-29-17V496H288V290h27.7v67.4c9-11.2 18.5-16.8 29-16.8 11 0 18.4 5.8 22 17.4 1.8 5.4 2.7 15.7 2.7 30.8V450zm105-25.4h-55.5v27c0 14.3 4.7 21.4 14.3 21.4 6.8 0 11-3.7 12.4-11 .4-2.2.6-8.5.6-19h28.3v4c0 10-.2 16-.6 18-.7 5.6-2.8 11-6.6 16.7-7.3 11-18.5 16.5-33.4 16.5-14.3 0-25.5-5.3-33.6-15.8-6-7.7-9-19.7-9-36v-54c0-16.2 3-28.2 8.7-36 8-10.5 19.2-15.8 33.2-15.8 13.8 0 24.8 5.3 33 16 5.5 7.6 8.3 19.6 8.3 36v32z"/>
  <path d="M432.6 365.8c-9.3 0-14 7-14 21v14.5h28V387c0-14-4.6-21.2-14-21.2zM329.5 365.8c-4.8 0-9.5 2.3-14 7V466c4.5 4.6 9.2 6.8 14 6.8 8 0 12-7 12-20.8v-65.6c0-13.8-4-20.8-12-20.8z"/>
</svg>